<svg width="60" height="60" viewBox="0 0 60 60" fill="none" xmlns="http://www.w3.org/2000/svg">
<path d="M0 17.3237C0 7.75607 7.75606 0 17.3237 0H42.0717C51.6393 0 59.3954 7.75606 59.3954 17.3237V42.0717C59.3954 51.6393 51.6393 59.3954 42.0717 59.3954H17.3237C7.75607 59.3954 0 51.6393 0 42.0717V17.3237Z" fill="#E8F0FF"/>
<path d="M20.0618 40.6973C19.7518 40.6193 19.4667 40.4501 19.2064 40.1896C18.9462 39.9291 18.7771 39.6437 18.6992 39.3335L39.3168 18.6973C39.6533 18.7885 39.9417 18.9577 40.1821 19.2049C40.4224 19.4522 40.5948 19.7375 40.6992 20.061L20.0618 40.6973V40.6973M18.6992 32.4323V29.7047L29.6967 18.6973H32.4218L18.6992 32.4323V32.4323M18.6992 22.8035V21.0366C18.6992 20.3829 18.9255 19.8296 19.378 19.3767C19.8305 18.9237 20.3834 18.6973 21.0365 18.6973H22.8018L18.6992 22.8035V22.8035M36.5768 40.6973L40.6793 36.591V38.3579C40.6793 39.0116 40.4531 39.5649 40.0005 40.0179C39.548 40.4708 38.9952 40.6973 38.3421 40.6973H36.5768V40.6973M26.9567 40.6973L40.6793 26.9622V29.6898L29.6818 40.6973H26.9567V40.6973" fill="#1A3A8C"/>
</svg>
