<svg width="60" height="60" viewBox="0 0 60 60" fill="none" xmlns="http://www.w3.org/2000/svg">
<path d="M0 17.3237C0 7.75607 7.75606 0 17.3237 0H42.0717C51.6393 0 59.3954 7.75606 59.3954 17.3237V42.0717C59.3954 51.6393 51.6393 59.3954 42.0717 59.3954H17.3237C7.75607 59.3954 0 51.6393 0 42.0717V17.3237Z" fill="#F1ECFF"/>
<path d="M35.6872 40.5438C34.5035 40.5438 33.4924 40.1245 32.6538 39.2859C31.8152 38.4473 31.3959 37.4361 31.3959 36.2525C31.3959 35.0689 31.8152 34.0578 32.6538 33.2192C33.4924 32.3805 34.5035 31.9612 35.6872 31.9612C36.8708 31.9612 37.8819 32.3805 38.7205 33.2192C39.5591 34.0578 39.9784 35.0689 39.9784 36.2525C39.9784 37.4361 39.5591 38.4473 38.7205 39.2859C37.8819 40.1245 36.8708 40.5438 35.6872 40.5438V40.5438M35.6872 38.7047C36.3615 38.7047 36.9388 38.4646 37.419 37.9844C37.8992 37.5041 38.1393 36.9269 38.1393 36.2525C38.1393 35.5782 37.8992 35.0009 37.419 34.5207C36.9388 34.0404 36.3615 33.8003 35.6872 33.8003C35.0128 33.8003 34.4355 34.0404 33.9553 34.5207C33.4751 35.0009 33.235 35.5782 33.235 36.2525C33.235 36.9269 33.4751 37.5041 33.9553 37.9844C34.4355 38.4646 35.0128 38.7047 35.6872 38.7047V38.7047M23.7092 36.8655C22.5256 36.8655 21.5145 36.4462 20.6759 35.6076C19.8373 34.769 19.418 33.7579 19.418 32.5742C19.418 31.3906 19.8373 30.3795 20.6759 29.5409C21.5145 28.7023 22.5256 28.283 23.7092 28.283C24.8929 28.283 25.904 28.7023 26.7426 29.5409C27.5812 30.3795 28.0005 31.3906 28.0005 32.5742C28.0005 33.7579 27.5812 34.769 26.7426 35.6076C25.904 36.4462 24.8929 36.8655 23.7092 36.8655V36.8655M23.7092 35.0264C24.3836 35.0264 24.9609 34.7863 25.4411 34.3061C25.9213 33.8259 26.1614 33.2486 26.1614 32.5742C26.1614 31.8999 25.9213 31.3226 25.4411 30.8424C24.9609 30.3622 24.3836 30.1221 23.7092 30.1221C23.0349 30.1221 22.4576 30.3622 21.9774 30.8424C21.4972 31.3226 21.2571 31.8999 21.2571 32.5742C21.2571 33.2486 21.4972 33.8259 21.9774 34.3061C22.4576 34.7863 23.0349 35.0264 23.7092 35.0264V35.0264M28.4721 27.4341C27.2885 27.4341 26.2774 27.0148 25.4387 26.1762C24.6001 25.3376 24.1808 24.3265 24.1808 23.1428C24.1808 21.9592 24.6001 20.9481 25.4387 20.1095C26.2774 19.2709 27.2885 18.8516 28.4721 18.8516C29.6557 18.8516 30.6669 19.2709 31.5055 20.1095C32.3441 20.9481 32.7634 21.9592 32.7634 23.1428C32.7634 24.3265 32.3441 25.3376 31.5055 26.1762C30.6669 27.0148 29.6557 27.4341 28.4721 27.4341V27.4341M28.4721 25.595C29.1465 25.595 29.7237 25.3549 30.204 24.8747C30.6842 24.3945 30.9243 23.8172 30.9243 23.1428C30.9243 22.4685 30.6842 21.8912 30.204 21.411C29.7237 20.9308 29.1465 20.6906 28.4721 20.6906C27.7978 20.6906 27.2205 20.9308 26.7403 21.411C26.26 21.8912 26.0199 22.4685 26.0199 23.1428C26.0199 23.8172 26.26 24.3945 26.7403 24.8747C27.2205 25.3549 27.7978 25.595 28.4721 25.595V25.595M35.6872 36.2525V36.2525V36.2525V36.2525V36.2525V36.2525V36.2525V36.2525V36.2525V36.2525M23.7092 32.5742V32.5742V32.5742V32.5742V32.5742V32.5742V32.5742V32.5742V32.5742V32.5742M28.4721 23.1428V23.1428V23.1428V23.1428V23.1428V23.1428V23.1428V23.1428V23.1428V23.1428" fill="#4F378B"/>
</svg>
