<svg width="60" height="60" viewBox="0 0 60 60" fill="none" xmlns="http://www.w3.org/2000/svg">
<path d="M0 17.3237C0 7.75607 7.75606 0 17.3237 0H42.0717C51.6393 0 59.3954 7.75606 59.3954 17.3237V42.0717C59.3954 51.6393 51.6393 59.3954 42.0717 59.3954H17.3237C7.75607 59.3954 0 51.6393 0 42.0717V17.3237Z" fill="#FDE8F0"/>
<path d="M20.6643 40.6973C19.8411 40.6973 19.256 40.3289 18.9089 39.5923C18.5618 38.8557 18.6456 38.1705 19.1602 37.5367L26.4725 28.6271V20.6384H24.9336C24.6593 20.6384 24.4294 20.5453 24.2439 20.3592C24.0584 20.1731 23.9656 19.9425 23.9656 19.6674C23.9656 19.3923 24.0584 19.1618 24.2439 18.976C24.4294 18.7902 24.6593 18.6973 24.9336 18.6973H34.4648C34.7391 18.6973 34.969 18.7903 35.1545 18.9764C35.3401 19.1625 35.4328 19.3932 35.4328 19.6683C35.4328 19.9434 35.3401 20.1739 35.1545 20.3597C34.969 20.5455 34.7391 20.6384 34.4648 20.6384H32.9259V28.6271L40.2382 37.5367C40.7528 38.1705 40.8366 38.8557 40.4895 39.5923C40.1425 40.3289 39.5573 40.6973 38.7341 40.6973H20.6643V40.6973M20.6643 38.7561H38.7341L30.9899 29.309V20.6384H28.4085V29.309L20.6643 38.7561V38.7561M29.6992 29.6973V29.6973V29.6973V29.6973V29.6973V29.6973V29.6973V29.6973" fill="#8C1A45"/>
</svg>
