<svg width="60" height="60" viewBox="0 0 60 60" fill="none" xmlns="http://www.w3.org/2000/svg">
<path d="M0 17.3237C0 7.75607 7.75606 0 17.3237 0H42.0717C51.6393 0 59.3954 7.75606 59.3954 17.3237V42.0717C59.3954 51.6393 51.6393 59.3954 42.0717 59.3954H17.3237C7.75607 59.3954 0 51.6393 0 42.0717V17.3237Z" fill="#F5E8FF"/>
<path d="M27.807 38.222L34.84 29.6641H29.4039L30.3892 21.8309L24.1037 31.0444H28.8263L27.807 38.222V38.222M25.1256 42.6973L26.4847 33.1148H20.1992L31.398 16.6973H33.0706L31.7246 27.5937H39.1992L26.7982 42.6973H25.1256V42.6973M29.4718 30.0092V30.0092V30.0092V30.0092V30.0092V30.0092V30.0092V30.0092" fill="#7C2D8E"/>
</svg>
