<svg width="60" height="60" viewBox="0 0 60 60" fill="none" xmlns="http://www.w3.org/2000/svg">
<path d="M0 17.3237C0 7.75607 7.75606 0 17.3237 0H42.0717C51.6393 0 59.3954 7.75606 59.3954 17.3237V42.0717C59.3954 51.6393 51.6393 59.3954 42.0717 59.3954H17.3237C7.75607 59.3954 0 51.6393 0 42.0717V17.3237Z" fill="#E0F7F3"/>
<path d="M28.4761 40.6973C27.9777 40.6973 27.5531 40.5186 27.2023 40.1614C26.8516 39.8041 26.6762 39.3717 26.6762 38.864V33.2346H22.88C22.2738 33.2346 21.7588 33.0207 21.335 32.593C20.9111 32.1652 20.6992 31.6465 20.6992 31.037V22.7282C20.6992 21.6188 21.0884 20.6696 21.8669 19.8807C22.6454 19.0917 23.583 18.6973 24.6799 18.6973H38.6992V31.037C38.6992 31.6465 38.4854 32.1652 38.0577 32.593C37.63 33.0207 37.1131 33.2346 36.5069 33.2346H32.7107V38.864C32.7107 39.3717 32.5353 39.8041 32.1846 40.1614C31.8338 40.5186 31.4092 40.6973 30.9108 40.6973H28.4761V40.6973M22.4992 26.9238H36.8993V20.5306H35.3184V25.2432H33.5185V20.5306H31.8107V22.9515H30.0108V20.5306H24.6799C24.0738 20.5306 23.5588 20.7425 23.135 21.1663C22.7111 21.5902 22.4992 22.1108 22.4992 22.7282V26.9238V26.9238M22.88 31.4013H36.5069C36.6146 31.4013 36.7069 31.3661 36.7839 31.2955C36.8608 31.225 36.8993 31.1388 36.8993 31.037V28.7571H22.4992V31.037C22.4992 31.1388 22.5357 31.225 22.6088 31.2955C22.6819 31.3661 22.7723 31.4013 22.88 31.4013V31.4013M22.4992 31.4013C22.4992 31.4013 22.4992 31.3661 22.4992 31.2955C22.4992 31.225 22.4992 31.1388 22.4992 31.037V28.7571V28.7571V31.037C22.4992 31.1388 22.4992 31.225 22.4992 31.2955C22.4992 31.3661 22.4992 31.4013 22.4992 31.4013V31.4013V31.4013" fill="#1A6E5E"/>
</svg>
