<svg width="60" height="60" viewBox="0 0 60 60" fill="none" xmlns="http://www.w3.org/2000/svg">
<path d="M0 17.3237C0 7.75607 7.75606 0 17.3237 0H42.0717C51.6393 0 59.3954 7.75606 59.3954 17.3237V42.0717C59.3954 51.6393 51.6393 59.3954 42.0717 59.3954H17.3237C7.75607 59.3954 0 51.6393 0 42.0717V17.3237Z" fill="#FFF1E5"/>
<path d="M19.2782 32.592C19.1238 32.592 18.9887 32.5341 18.8729 32.4183C18.7571 32.3025 18.6992 32.1674 18.6992 32.0131C18.6992 31.8587 18.7571 31.7236 18.8729 31.6078C18.9887 31.492 19.1238 31.4341 19.2782 31.4341C19.4326 31.4341 19.5676 31.492 19.6834 31.6078C19.7992 31.7236 19.8571 31.8587 19.8571 32.0131C19.8571 32.1674 19.7992 32.3025 19.6834 32.4183C19.5676 32.5341 19.4326 32.592 19.2782 32.592V32.592M19.2782 27.9604C19.1238 27.9604 18.9887 27.9025 18.8729 27.7867C18.7571 27.6709 18.6992 27.5359 18.6992 27.3815C18.6992 27.2271 18.7571 27.092 18.8729 26.9762C18.9887 26.8604 19.1238 26.8025 19.2782 26.8025C19.4326 26.8025 19.5676 26.8604 19.6834 26.9762C19.7992 27.092 19.8571 27.2271 19.8571 27.3815C19.8571 27.5359 19.7992 27.6709 19.6834 27.7867C19.5676 27.9025 19.4326 27.9604 19.2782 27.9604V27.9604M22.7519 37.7135C22.446 37.7135 22.1915 37.6118 21.9881 37.4084C21.7847 37.205 21.683 36.9504 21.683 36.6446C21.683 36.3388 21.7847 36.0842 21.9881 35.8809C22.1915 35.6775 22.446 35.5758 22.7519 35.5758C23.0577 35.5758 23.3122 35.6775 23.5156 35.8809C23.719 36.0842 23.8207 36.3388 23.8207 36.6446C23.8207 36.9504 23.719 37.205 23.5156 37.4084C23.3122 37.6118 23.0577 37.7135 22.7519 37.7135V37.7135M22.7519 33.0819C22.446 33.0819 22.1915 32.9802 21.9881 32.7768C21.7847 32.5734 21.683 32.3189 21.683 32.0131C21.683 31.7073 21.7847 31.4527 21.9881 31.2493C22.1915 31.0459 22.446 30.9442 22.7519 30.9442C23.0577 30.9442 23.3122 31.0459 23.5156 31.2493C23.719 31.4527 23.8207 31.7073 23.8207 32.0131C23.8207 32.3189 23.719 32.5734 23.5156 32.7768C23.3122 32.9802 23.0577 33.0819 22.7519 33.0819V33.0819M22.7519 28.4503C22.446 28.4503 22.1915 28.3486 21.9881 28.1452C21.7847 27.9419 21.683 27.6873 21.683 27.3815C21.683 27.0757 21.7847 26.8211 21.9881 26.6177C22.1915 26.4143 22.446 26.3127 22.7519 26.3127C23.0577 26.3127 23.3122 26.4143 23.5156 26.6177C23.719 26.8211 23.8207 27.0757 23.8207 27.3815C23.8207 27.6873 23.719 27.9419 23.5156 28.1452C23.3122 28.3486 23.0577 28.4503 22.7519 28.4503V28.4503M22.7519 23.8187C22.446 23.8187 22.1915 23.717 21.9881 23.5137C21.7847 23.3103 21.683 23.0557 21.683 22.7499C21.683 22.4441 21.7847 22.1895 21.9881 21.9861C22.1915 21.7828 22.446 21.6811 22.7519 21.6811C23.0577 21.6811 23.3122 21.7828 23.5156 21.9861C23.719 22.1895 23.8207 22.4441 23.8207 22.7499C23.8207 23.0557 23.719 23.3103 23.5156 23.5137C23.3122 23.717 23.0577 23.8187 22.7519 23.8187V23.8187M27.3834 33.5717C26.9529 33.5717 26.5855 33.4196 26.2812 33.1153C25.9769 32.811 25.8247 32.4436 25.8247 32.0131C25.8247 31.5826 25.9769 31.2152 26.2812 30.9108C26.5855 30.6065 26.9529 30.4544 27.3834 30.4544C27.8139 30.4544 28.1813 30.6065 28.4856 30.9108C28.79 31.2152 28.9421 31.5826 28.9421 32.0131C28.9421 32.4436 28.79 32.811 28.4856 33.1153C28.1813 33.4196 27.8139 33.5717 27.3834 33.5717V33.5717M27.3834 28.9402C26.9529 28.9402 26.5855 28.788 26.2812 28.4837C25.9769 28.1794 25.8247 27.812 25.8247 27.3815C25.8247 26.951 25.9769 26.5836 26.2812 26.2793C26.5855 25.9749 26.9529 25.8228 27.3834 25.8228C27.8139 25.8228 28.1813 25.9749 28.4856 26.2793C28.79 26.5836 28.9421 26.951 28.9421 27.3815C28.9421 27.812 28.79 28.1794 28.4856 28.4837C28.1813 28.788 27.8139 28.9402 27.3834 28.9402V28.9402M27.3834 37.7135C27.0776 37.7135 26.823 37.6118 26.6197 37.4084C26.4163 37.205 26.3146 36.9504 26.3146 36.6446C26.3146 36.3388 26.4163 36.0842 26.6197 35.8809C26.823 35.6775 27.0776 35.5758 27.3834 35.5758C27.6892 35.5758 27.9438 35.6775 28.1472 35.8809C28.3506 36.0842 28.4522 36.3388 28.4522 36.6446C28.4522 36.9504 28.3506 37.205 28.1472 37.4084C27.9438 37.6118 27.6892 37.7135 27.3834 37.7135V37.7135M27.3834 23.8187C27.0776 23.8187 26.823 23.717 26.6197 23.5137C26.4163 23.3103 26.3146 23.0557 26.3146 22.7499C26.3146 22.4441 26.4163 22.1895 26.6197 21.9861C26.823 21.7828 27.0776 21.6811 27.3834 21.6811C27.6892 21.6811 27.9438 21.7828 28.1472 21.9861C28.3506 22.1895 28.4522 22.4441 28.4522 22.7499C28.4522 23.0557 28.3506 23.3103 28.1472 23.5137C27.9438 23.717 27.6892 23.8187 27.3834 23.8187V23.8187M27.3834 40.6973C27.229 40.6973 27.094 40.6394 26.9782 40.5236C26.8624 40.4078 26.8045 40.2727 26.8045 40.1183C26.8045 39.9639 26.8624 39.8288 26.9782 39.7131C27.094 39.5973 27.229 39.5394 27.3834 39.5394C27.5378 39.5394 27.6729 39.5973 27.7887 39.7131C27.9045 39.8288 27.9624 39.9639 27.9624 40.1183C27.9624 40.2727 27.9045 40.4078 27.7887 40.5236C27.6729 40.6394 27.5378 40.6973 27.3834 40.6973V40.6973M27.3834 19.8552C27.229 19.8552 27.094 19.7973 26.9782 19.6815C26.8624 19.5657 26.8045 19.4306 26.8045 19.2762C26.8045 19.1218 26.8624 18.9867 26.9782 18.8709C27.094 18.7552 27.229 18.6973 27.3834 18.6973C27.5378 18.6973 27.6729 18.7552 27.7887 18.8709C27.9045 18.9867 27.9624 19.1218 27.9624 19.2762C27.9624 19.4306 27.9045 19.5657 27.7887 19.6815C27.6729 19.7973 27.5378 19.8552 27.3834 19.8552V19.8552M32.015 33.5717C31.5845 33.5717 31.2171 33.4196 30.9128 33.1153C30.6085 32.811 30.4563 32.4436 30.4563 32.0131C30.4563 31.5826 30.6085 31.2152 30.9128 30.9108C31.2171 30.6065 31.5845 30.4544 32.015 30.4544C32.4455 30.4544 32.8129 30.6065 33.1172 30.9108C33.4215 31.2152 33.5737 31.5826 33.5737 32.0131C33.5737 32.4436 33.4215 32.811 33.1172 33.1153C32.8129 33.4196 32.4455 33.5717 32.015 33.5717V33.5717M32.015 28.9402C31.5845 28.9402 31.2171 28.788 30.9128 28.4837C30.6085 28.1794 30.4563 27.812 30.4563 27.3815C30.4563 26.951 30.6085 26.5836 30.9128 26.2793C31.2171 25.9749 31.5845 25.8228 32.015 25.8228C32.4455 25.8228 32.8129 25.9749 33.1172 26.2793C33.4215 26.5836 33.5737 26.951 33.5737 27.3815C33.5737 27.812 33.4215 28.1794 33.1172 28.4837C32.8129 28.788 32.4455 28.9402 32.015 28.9402V28.9402M32.015 37.7135C31.7092 37.7135 31.4546 37.6118 31.2512 37.4084C31.0479 37.205 30.9462 36.9504 30.9462 36.6446C30.9462 36.3388 31.0479 36.0842 31.2512 35.8809C31.4546 35.6775 31.7092 35.5758 32.015 35.5758C32.3208 35.5758 32.5754 35.6775 32.7788 35.8809C32.9821 36.0842 33.0838 36.3388 33.0838 36.6446C33.0838 36.9504 32.9821 37.205 32.7788 37.4084C32.5754 37.6118 32.3208 37.7135 32.015 37.7135V37.7135M32.015 23.8187C31.7092 23.8187 31.4546 23.717 31.2512 23.5137C31.0479 23.3103 30.9462 23.0557 30.9462 22.7499C30.9462 22.4441 31.0479 22.1895 31.2512 21.9861C31.4546 21.7828 31.7092 21.6811 32.015 21.6811C32.3208 21.6811 32.5754 21.7828 32.7788 21.9861C32.9821 22.1895 33.0838 22.4441 33.0838 22.7499C33.0838 23.0557 32.9821 23.3103 32.7788 23.5137C32.5754 23.717 32.3208 23.8187 32.015 23.8187V23.8187M32.015 40.6973C31.8606 40.6973 31.7255 40.6394 31.6097 40.5236C31.494 40.4078 31.4361 40.2727 31.4361 40.1183C31.4361 39.9639 31.494 39.8288 31.6097 39.7131C31.7255 39.5973 31.8606 39.5394 32.015 39.5394C32.1694 39.5394 32.3045 39.5973 32.4203 39.7131C32.5361 39.8288 32.594 39.9639 32.594 40.1183C32.594 40.2727 32.5361 40.4078 32.4203 40.5236C32.3045 40.6394 32.1694 40.6973 32.015 40.6973V40.6973M32.015 19.8552C31.8606 19.8552 31.7255 19.7973 31.6097 19.6815C31.494 19.5657 31.4361 19.4306 31.4361 19.2762C31.4361 19.1218 31.494 18.9867 31.6097 18.8709C31.7255 18.7552 31.8606 18.6973 32.015 18.6973C32.1694 18.6973 32.3045 18.7552 32.4203 18.8709C32.5361 18.9867 32.594 19.1218 32.594 19.2762C32.594 19.4306 32.5361 19.5657 32.4203 19.6815C32.3045 19.7973 32.1694 19.8552 32.015 19.8552V19.8552M36.6466 37.7135C36.3408 37.7135 36.0862 37.6118 35.8828 37.4084C35.6795 37.205 35.5778 36.9504 35.5778 36.6446C35.5778 36.3388 35.6795 36.0842 35.8828 35.8809C36.0862 35.6775 36.3408 35.5758 36.6466 35.5758C36.9524 35.5758 37.207 35.6775 37.4103 35.8809C37.6137 36.0842 37.7154 36.3388 37.7154 36.6446C37.7154 36.9504 37.6137 37.205 37.4103 37.4084C37.207 37.6118 36.9524 37.7135 36.6466 37.7135V37.7135M36.6466 33.0819C36.3408 33.0819 36.0862 32.9802 35.8828 32.7768C35.6795 32.5734 35.5778 32.3189 35.5778 32.0131C35.5778 31.7073 35.6795 31.4527 35.8828 31.2493C36.0862 31.0459 36.3408 30.9442 36.6466 30.9442C36.9524 30.9442 37.207 31.0459 37.4103 31.2493C37.6137 31.4527 37.7154 31.7073 37.7154 32.0131C37.7154 32.3189 37.6137 32.5734 37.4103 32.7768C37.207 32.9802 36.9524 33.0819 36.6466 33.0819V33.0819M36.6466 28.4503C36.3408 28.4503 36.0862 28.3486 35.8828 28.1452C35.6795 27.9419 35.5778 27.6873 35.5778 27.3815C35.5778 27.0757 35.6795 26.8211 35.8828 26.6177C36.0862 26.4143 36.3408 26.3127 36.6466 26.3127C36.9524 26.3127 37.207 26.4143 37.4103 26.6177C37.6137 26.8211 37.7154 27.0757 37.7154 27.3815C37.7154 27.6873 37.6137 27.9419 37.4103 28.1452C37.207 28.3486 36.9524 28.4503 36.6466 28.4503V28.4503M36.6466 23.8187C36.3408 23.8187 36.0862 23.717 35.8828 23.5137C35.6795 23.3103 35.5778 23.0557 35.5778 22.7499C35.5778 22.4441 35.6795 22.1895 35.8828 21.9861C36.0862 21.7828 36.3408 21.6811 36.6466 21.6811C36.9524 21.6811 37.207 21.7828 37.4103 21.9861C37.6137 22.1895 37.7154 22.4441 37.7154 22.7499C37.7154 23.0557 37.6137 23.3103 37.4103 23.5137C37.207 23.717 36.9524 23.8187 36.6466 23.8187V23.8187M40.1203 32.592C39.9659 32.592 39.8308 32.5341 39.715 32.4183C39.5992 32.3025 39.5413 32.1674 39.5413 32.0131C39.5413 31.8587 39.5992 31.7236 39.715 31.6078C39.8308 31.492 39.9659 31.4341 40.1203 31.4341C40.2747 31.4341 40.4097 31.492 40.5255 31.6078C40.6413 31.7236 40.6992 31.8587 40.6992 32.0131C40.6992 32.1674 40.6413 32.3025 40.5255 32.4183C40.4097 32.5341 40.2747 32.592 40.1203 32.592V32.592M40.1203 27.9604C39.9659 27.9604 39.8308 27.9025 39.715 27.7867C39.5992 27.6709 39.5413 27.5359 39.5413 27.3815C39.5413 27.2271 39.5992 27.092 39.715 26.9762C39.8308 26.8604 39.9659 26.8025 40.1203 26.8025C40.2747 26.8025 40.4097 26.8604 40.5255 26.9762C40.6413 27.092 40.6992 27.2271 40.6992 27.3815C40.6992 27.5359 40.6413 27.6709 40.5255 27.7867C40.4097 27.9025 40.2747 27.9604 40.1203 27.9604V27.9604" fill="#C8680E"/>
</svg>
