<svg width="69" height="69" viewBox="0 0 69 69" fill="none" xmlns="http://www.w3.org/2000/svg">
<path d="M0 17.228C0 7.71325 7.71324 0 17.228 0H51.684C61.1988 0 68.912 7.71324 68.912 17.228V51.684C68.912 61.1988 61.1988 68.912 51.684 68.912H17.228C7.71325 68.912 0 61.1988 0 51.684V17.228Z" fill="#F5E8FF"/>
<path d="M33.31 46.0324V35.1147L23.7511 29.5794V40.2324C23.7511 40.3108 23.7707 40.3843 23.8099 40.453C23.8491 40.5216 23.908 40.5804 23.9864 40.6294L33.31 46.0324V46.0324M35.6041 46.0324L44.9276 40.6294C45.0061 40.5804 45.0649 40.5216 45.1041 40.453C45.1434 40.3843 45.163 40.3108 45.163 40.2324V29.5794L35.6041 35.1147V46.0324V46.0324M33.0747 48.5353L22.8394 42.6441C22.4041 42.3931 22.0649 42.0578 21.8217 41.6382C21.5786 41.2186 21.457 40.7578 21.457 40.2559V28.6559C21.457 28.1539 21.5786 27.6931 21.8217 27.2735C22.0649 26.8539 22.4041 26.5186 22.8394 26.2677L33.0747 20.3765C33.51 20.1255 33.9708 20 34.457 20C34.9433 20 35.4041 20.1255 35.8394 20.3765L46.0747 26.2677C46.51 26.5186 46.8492 26.8539 47.0923 27.2735C47.3355 27.6931 47.457 28.1539 47.457 28.6559V40.2559C47.457 40.7578 47.3355 41.2186 47.0923 41.6382C46.8492 42.0578 46.51 42.3931 46.0747 42.6441L35.8394 48.5353C35.4041 48.7863 34.9433 48.9118 34.457 48.9118C33.9708 48.9118 33.51 48.7863 33.0747 48.5353V48.5353M40.3541 29.7147L43.9012 27.6794L34.6923 22.3529C34.6139 22.3039 34.5355 22.2794 34.457 22.2794C34.3786 22.2794 34.3002 22.3039 34.2217 22.3529L30.9011 24.2647L40.3541 29.7147V29.7147M34.457 33.1383L38.013 31.0794L28.5688 25.6205L25.0128 27.6794L34.457 33.1383V33.1383" fill="#7C2D8E"/>
</svg>
