<svg width="69" height="69" viewBox="0 0 69 69" fill="none" xmlns="http://www.w3.org/2000/svg">
<path d="M0 17.228C0 7.71325 7.71324 0 17.228 0H51.684C61.1988 0 68.912 7.71324 68.912 17.228V51.684C68.912 61.1988 61.1988 68.912 51.684 68.912H17.228C7.71325 68.912 0 61.1988 0 51.684V17.228Z" fill="#EDE8FF"/>
<path d="M18.9867 51.9561V47.2952H25.2007L19.9859 30.3137C19.0856 29.8476 18.3557 29.1717 17.7962 28.2862C17.2368 27.4006 16.957 26.4218 16.957 25.3497C16.957 23.809 17.5002 22.4982 18.5866 21.4171C19.673 20.336 20.9904 19.7955 22.5386 19.7955C23.8189 19.7955 24.9391 20.1742 25.8993 20.9316C26.8595 21.689 27.5165 22.6568 27.8704 23.835H34.8338V21.3102C34.8338 20.8804 34.9796 20.5205 35.271 20.2305C35.5624 19.9405 35.9241 19.7955 36.3561 19.7955C36.6215 19.7955 36.8687 19.8628 37.0977 19.9974C37.3267 20.1321 37.5036 20.3211 37.6285 20.5645V20.8364L41.1961 17.5271C41.4875 17.2371 41.8251 17.0565 42.209 16.9853C42.5928 16.9141 42.9681 16.973 43.335 17.162L51.1337 20.7587C51.4616 20.9219 51.6951 21.1581 51.8343 21.4676C51.9735 21.777 51.9716 22.0845 51.8285 22.39C51.6645 22.7163 51.4271 22.9254 51.1161 23.0173C50.8052 23.1092 50.4962 23.084 50.1891 22.9416L42.6871 19.4924L37.8783 23.9359V26.7636L42.6871 31.1061L50.1891 27.6569C50.4962 27.5145 50.8104 27.4944 51.1318 27.5967C51.4531 27.699 51.6854 27.9029 51.8285 28.2085C51.9924 28.5347 51.9996 28.8474 51.8499 29.1465C51.7003 29.4455 51.4616 29.6766 51.1337 29.8398L43.335 33.4986C42.9681 33.6877 42.5928 33.7433 42.209 33.6657C41.8251 33.588 41.4875 33.4106 41.1961 33.1335L37.6285 29.8631V30.135C37.5036 30.337 37.3267 30.5156 37.0977 30.671C36.8687 30.8264 36.6215 30.904 36.3561 30.904C35.9241 30.904 35.5624 30.759 35.271 30.469C34.9796 30.179 34.8338 29.8191 34.8338 29.3893V26.8645H27.8704C27.7689 27.2245 27.6297 27.574 27.4528 27.9133C27.2758 28.2525 27.0663 28.5632 26.8243 28.8455L36.8166 47.2952H44.3577V51.9561H18.9867V51.9561M22.5386 27.8745C23.2438 27.8745 23.843 27.6291 24.3361 27.1384C24.8292 26.6477 25.0758 26.0515 25.0758 25.3497C25.0758 24.648 24.8292 24.0518 24.3361 23.5611C23.843 23.0704 23.2438 22.825 22.5386 22.825C21.8334 22.825 21.2343 23.0704 20.7412 23.5611C20.248 24.0518 20.0015 24.648 20.0015 25.3497C20.0015 26.0515 20.248 26.6477 20.7412 27.1384C21.2343 27.6291 21.8334 27.8745 22.5386 27.8745V27.8745M28.3466 47.2952H33.3194L24.3576 30.7098C24.2535 30.7746 24.0895 30.8296 23.8657 30.8749C23.6419 30.9202 23.4519 30.9299 23.2958 30.904L28.3466 47.2952V47.2952M33.3194 47.2952V47.2952V47.2952V47.2952V47.2952V47.2952V47.2952" fill="#4F378B"/>
</svg>
