<svg width="69" height="69" viewBox="0 0 69 69" fill="none" xmlns="http://www.w3.org/2000/svg">
<path d="M0 17.228C0 7.71325 7.71324 0 17.228 0H51.684C61.1988 0 68.912 7.71324 68.912 17.228V51.684C68.912 61.1988 61.1988 68.912 51.684 68.912H17.228C7.71325 68.912 0 61.1988 0 51.684V17.228Z" fill="#E8F0FF"/>
<path d="M23.7719 47.581V42.1867C23.0668 41.9688 22.4839 41.5701 22.0231 40.9908C21.5624 40.4115 21.332 39.7352 21.332 38.9618V27.0642H23.7719V22.2685C23.7719 22.0029 23.8618 21.7803 24.0416 21.6006C24.2213 21.4209 24.4441 21.3311 24.7098 21.3311C24.9756 21.3311 25.1982 21.4209 25.3777 21.6006C25.5571 21.7803 25.6469 22.0029 25.6469 22.2685V27.0642H28.0868V38.9618C28.0868 39.7352 27.8564 40.4115 27.3957 40.9908C26.9349 41.5701 26.352 41.9688 25.6469 42.1867V47.581H23.7719ZM33.5195 47.581V42.1867C32.8144 41.9688 32.2315 41.5701 31.7707 40.9908C31.31 40.4115 31.0796 39.7352 31.0796 38.9618V27.0642H33.5195V22.2685C33.5195 22.0029 33.6094 21.7803 33.7892 21.6006C33.9689 21.4209 34.1917 21.3311 34.4574 21.3311C34.7231 21.3311 34.9458 21.4209 35.1252 21.6006C35.3047 21.7803 35.3945 22.0029 35.3945 22.2685V27.0642H37.8344V38.9618C37.8344 39.7352 37.604 40.4115 37.1433 40.9908C36.6825 41.5701 36.0996 41.9688 35.3945 42.1867V47.581H33.5195ZM43.2671 47.581V42.1867C42.562 41.9688 41.979 41.5701 41.5183 40.9908C41.0576 40.4115 40.8272 39.7352 40.8272 38.9618V27.0642H43.2671V22.2685C43.2671 22.0029 43.357 21.7803 43.5367 21.6006C43.7165 21.4209 43.9392 21.3311 44.205 21.3311C44.4707 21.3311 44.6933 21.4209 44.8728 21.6006C45.0523 21.7803 45.142 22.0029 45.142 22.2685V27.0642H47.5819V38.9618C47.5819 39.7352 47.3516 40.4115 46.8908 40.9908C46.4301 41.5701 45.8472 41.9688 45.142 42.1867V47.581H43.2671ZM23.207 28.9391V34.3719H26.2118V28.9391H23.207ZM32.9546 28.9391V34.3719H35.9594V28.9391H32.9546ZM42.7021 28.9391V34.3719H45.707V28.9391H42.7021ZM24.7094 40.4656C25.1277 40.4656 25.4827 40.3216 25.7743 40.0337C26.066 39.7457 26.2118 39.3889 26.2118 38.9632V36.2468H23.207V38.9632C23.207 39.3889 23.3528 39.7457 23.6445 40.0337C23.9362 40.3216 24.2911 40.4656 24.7094 40.4656ZM34.457 40.4656C34.8753 40.4656 35.2302 40.3216 35.5219 40.0337C35.8136 39.7457 35.9594 39.3889 35.9594 38.9632V36.2468H32.9546V38.9632C32.9546 39.3889 33.1004 39.7457 33.3921 40.0337C33.6837 40.3216 34.0387 40.4656 34.457 40.4656ZM44.2046 40.4656C44.6228 40.4656 44.9778 40.3216 45.2695 40.0337C45.5612 39.7457 45.707 39.3889 45.707 38.9632V36.2468H42.7021V38.9632C42.7021 39.3889 42.848 39.7457 43.1396 40.0337C43.4313 40.3216 43.7863 40.4656 44.2046 40.4656Z" fill="#1A3A8C"/>
</svg>
