<svg width="69" height="69" viewBox="0 0 69 69" fill="none" xmlns="http://www.w3.org/2000/svg">
<path d="M0 17.228C0 7.71325 7.71324 0 17.228 0H51.684C61.1988 0 68.912 7.71324 68.912 17.228V51.684C68.912 61.1988 61.1988 68.912 51.684 68.912H17.228C7.71325 68.912 0 61.1988 0 51.684V17.228Z" fill="#FFF1E5"/>
<path d="M34.457 50.4561C32.0983 50.4561 30.092 49.6319 28.438 47.9837C26.784 46.3354 25.957 44.336 25.957 41.9855C25.957 40.552 26.2936 39.2265 26.9669 38.009C27.6401 36.7915 28.5628 35.7762 29.7348 34.9629V23.1619C29.7348 21.8467 30.1919 20.7336 31.1061 19.8226C32.0203 18.9116 33.1372 18.4561 34.457 18.4561C35.7768 18.4561 36.8938 18.9116 37.808 19.8226C38.7221 20.7336 39.1792 21.8467 39.1792 23.1619V34.9629C40.3513 35.7762 41.2709 36.7915 41.9381 38.009C42.6053 39.2265 42.9449 40.552 42.957 41.9855C42.9449 44.336 42.1119 46.3354 40.4579 47.9837C38.8039 49.6319 36.8036 50.4561 34.457 50.4561V50.4561M34.457 47.6326C36.0311 47.6326 37.3691 47.0836 38.471 45.9855C39.5728 44.8875 40.1237 43.5541 40.1237 41.9855C40.1237 41.0757 39.927 40.2286 39.5335 39.4443C39.1399 38.66 38.5811 38.0012 37.8571 37.4678L36.3459 36.3384V30.6913V23.1619C36.3459 22.6286 36.1649 22.1815 35.8029 21.8207C35.4408 21.4599 34.9922 21.2795 34.457 21.2795C33.9218 21.2795 33.4732 21.4599 33.1112 21.8207C32.7491 22.1815 32.5681 22.6286 32.5681 23.1619V30.6913V36.3384L31.057 37.4678C30.3329 38.0012 29.7741 38.66 29.3806 39.4443C28.9871 40.2286 28.7903 41.0757 28.7903 41.9855C28.7903 43.5541 29.3412 44.8875 30.4431 45.9855C31.545 47.0836 32.8829 47.6326 34.457 47.6326V47.6326M34.457 41.9855V41.9855V41.9855V41.9855V41.9855V41.9855V41.9855V41.9855V41.9855V41.9855V41.9855V41.9855V41.9855V41.9855V41.9855" fill="#C45E00"/>
</svg>
