<svg width="69" height="69" viewBox="0 0 69 69" fill="none" xmlns="http://www.w3.org/2000/svg">
<path d="M0 17.228C0 7.71325 7.71324 0 17.228 0H51.684C61.1988 0 68.912 7.71324 68.912 17.228V51.684C68.912 61.1988 61.1988 68.912 51.684 68.912H17.228C7.71325 68.912 0 61.1988 0 51.684V17.228Z" fill="#E0F7F3"/>
<path d="M34.4556 50.2957C30.7517 50.2957 27.602 49.023 25.0065 46.4777C22.411 43.9324 21.1133 40.8169 21.1133 37.1313C21.1133 35.3409 21.4639 33.6594 22.1653 32.0868C22.8666 30.5143 23.8182 29.1099 25.0202 27.8737L34.4556 18.6162L43.891 27.8737C45.093 29.1099 46.0446 30.5143 46.746 32.0868C47.4473 33.6594 47.7979 35.3409 47.7979 37.1313C47.7979 40.8169 46.5002 43.9324 43.9047 46.4777C41.3092 49.023 38.1595 50.2957 34.4556 50.2957V50.2957M23.8878 38.7324H44.9687C45.3245 36.5976 45.1216 34.7684 44.3598 33.2449C43.598 31.7213 42.8169 30.5741 42.0163 29.8032L34.4556 22.3315L26.8949 29.8032C26.0944 30.5741 25.3115 31.7213 24.5463 33.2449C23.7811 34.7684 23.5616 36.5976 23.8878 38.7324V38.7324" fill="#1A6E5E"/>
</svg>
