<svg width="44" height="44" viewBox="0 0 44 44" fill="none" xmlns="http://www.w3.org/2000/svg">
<path d="M0 14C0 6.26801 6.26801 0 14 0H30C37.732 0 44 6.26801 44 14V30C44 37.732 37.732 44 30 44H14C6.26801 44 0 37.732 0 30V14Z" fill="#E8F4FF"/>
<path d="M14 31C13.45 31 12.9792 30.8042 12.5875 30.4125C12.1958 30.0208 12 29.55 12 29V15C12 14.45 12.1958 13.9792 12.5875 13.5875C12.9792 13.1958 13.45 13 14 13H30C30.55 13 31.0208 13.1958 31.4125 13.5875C31.8042 13.9792 32 14.45 32 15V29C32 29.55 31.8042 30.0208 31.4125 30.4125C31.0208 30.8042 30.55 31 30 31H14V31M14 29H30V29V29V15V15V15H14V15V15V29V29V29V29M15 27H20V25H15V27V27M24.55 25L29.5 20.05L28.075 18.625L24.55 22.175L23.125 20.75L21.725 22.175L24.55 25V25M15 23H20V21H15V23V23M15 19H20V17H15V19V19M14 29V29V29V29V15V15V15V15V15V15V29V29V29V29" fill="#4B92D2"/>
</svg>
