<svg width="44" height="44" viewBox="0 0 44 44" fill="none" xmlns="http://www.w3.org/2000/svg">
<path d="M0 14C0 6.26801 6.26801 0 14 0H30C37.732 0 44 6.26801 44 14V30C44 37.732 37.732 44 30 44H14C6.26801 44 0 37.732 0 30V14Z" fill="#E6FAF6"/>
<path d="M24 23C23.1667 23 22.4583 22.7083 21.875 22.125C21.2917 21.5417 21 20.8333 21 20C21 19.1667 21.2917 18.4583 21.875 17.875C22.4583 17.2917 23.1667 17 24 17C24.8333 17 25.5417 17.2917 26.125 17.875C26.7083 18.4583 27 19.1667 27 20C27 20.8333 26.7083 21.5417 26.125 22.125C25.5417 22.7083 24.8333 23 24 23V23M17 26C16.45 26 15.9792 25.8042 15.5875 25.4125C15.1958 25.0208 15 24.55 15 24V16C15 15.45 15.1958 14.9792 15.5875 14.5875C15.9792 14.1958 16.45 14 17 14H31C31.55 14 32.0208 14.1958 32.4125 14.5875C32.8042 14.9792 33 15.45 33 16V24C33 24.55 32.8042 25.0208 32.4125 25.4125C32.0208 25.8042 31.55 26 31 26H17V26M19 24H29C29 23.45 29.1958 22.9792 29.5875 22.5875C29.9792 22.1958 30.45 22 31 22V18C30.45 18 29.9792 17.8042 29.5875 17.4125C29.1958 17.0208 29 16.55 29 16H19C19 16.55 18.8042 17.0208 18.4125 17.4125C18.0208 17.8042 17.55 18 17 18V22C17.55 22 18.0208 22.1958 18.4125 22.5875C18.8042 22.9792 19 23.45 19 24V24M30 30H13C12.45 30 11.9792 29.8042 11.5875 29.4125C11.1958 29.0208 11 28.55 11 28V17H13V28V28V28H30V30V30M17 24V24V24V24V16V16V16V16V16V16V24V24V24V24" fill="#20AF98"/>
</svg>
