<svg width="44" height="44" viewBox="0 0 44 44" fill="none" xmlns="http://www.w3.org/2000/svg">
<path d="M0 14C0 6.26801 6.26801 0 14 0H30C37.732 0 44 6.26801 44 14V30C44 37.732 37.732 44 30 44H14C6.26801 44 0 37.732 0 30V14Z" fill="#EDE8F7"/>
<path d="M13.9844 31.253V28.253H17.0844L14.5344 19.903C14.0844 19.653 13.7135 19.2863 13.4219 18.803C13.1302 18.3196 12.9844 17.803 12.9844 17.253C12.9844 16.4196 13.276 15.7113 13.8594 15.128C14.4427 14.5446 15.151 14.253 15.9844 14.253C16.6344 14.253 17.2135 14.4405 17.7219 14.8155C18.2302 15.1905 18.5844 15.6696 18.7844 16.253H21.9844V15.253C21.9844 14.9696 22.0802 14.7321 22.2719 14.5405C22.4635 14.3488 22.701 14.253 22.9844 14.253C23.1344 14.253 23.2802 14.2863 23.4219 14.353C23.5635 14.4196 23.6844 14.5196 23.7844 14.653V14.653L25.4844 13.053C25.6344 12.903 25.8135 12.8071 26.0219 12.7655C26.2302 12.7238 26.4344 12.753 26.6344 12.853L30.5344 14.653C30.7344 14.753 30.8719 14.8988 30.9469 15.0905C31.0219 15.2821 31.0177 15.4696 30.9344 15.653C30.8344 15.853 30.6885 15.9821 30.4969 16.0405C30.3052 16.0988 30.1177 16.0863 29.9344 16.003L26.3344 14.353L23.9844 16.553V17.953L26.3344 20.103L29.9344 18.453C30.1177 18.3696 30.3094 18.3613 30.5094 18.428C30.7094 18.4946 30.851 18.6196 30.9344 18.803C31.0344 19.003 31.0427 19.1946 30.9594 19.378C30.876 19.5613 30.7344 19.703 30.5344 19.803L26.6344 21.653C26.4344 21.753 26.2302 21.7821 26.0219 21.7405C25.8135 21.6988 25.6344 21.603 25.4844 21.453L23.7844 19.853V19.853C23.6844 19.953 23.5635 20.0446 23.4219 20.128C23.2802 20.2113 23.1344 20.253 22.9844 20.253C22.701 20.253 22.4635 20.1571 22.2719 19.9655C22.0802 19.7738 21.9844 19.5363 21.9844 19.253V18.253H18.7844C18.7344 18.3863 18.6802 18.5113 18.6219 18.628C18.5635 18.7446 18.4844 18.8696 18.3844 19.003L23.3844 28.253H26.9844V31.253H13.9844V31.253M15.9844 18.253C16.2677 18.253 16.5052 18.1571 16.6969 17.9655C16.8885 17.7738 16.9844 17.5363 16.9844 17.253C16.9844 16.9696 16.8885 16.7321 16.6969 16.5405C16.5052 16.3488 16.2677 16.253 15.9844 16.253C15.701 16.253 15.4635 16.3488 15.2719 16.5405C15.0802 16.7321 14.9844 16.9696 14.9844 17.253C14.9844 17.5363 15.0802 17.7738 15.2719 17.9655C15.4635 18.1571 15.701 18.253 15.9844 18.253V18.253M19.1344 28.253H21.0844L16.7844 20.253C16.7844 20.253 16.7677 20.253 16.7344 20.253C16.701 20.253 16.6844 20.253 16.6844 20.253L19.1344 28.253V28.253M21.0844 28.253V28.253V28.253V28.253V28.253V28.253V28.253" fill="#4F378B"/>
</svg>
