<svg width="44" height="44" viewBox="0 0 44 44" fill="none" xmlns="http://www.w3.org/2000/svg">
<path d="M0 14C0 6.26801 6.26801 0 14 0H30C37.732 0 44 6.26801 44 14V30C44 37.732 37.732 44 30 44H14C6.26801 44 0 37.732 0 30V14Z" fill="#FFF8E1"/>
<path d="M15 31C14.1667 31 13.4583 30.7083 12.875 30.125C12.2917 29.5417 12 28.8333 12 28C12 27.1667 12.2917 26.4583 12.875 25.875C13.4583 25.2917 14.1667 25 15 25H29C29.8333 25 30.5417 25.2917 31.125 25.875C31.7083 26.4583 32 27.1667 32 28C32 28.8333 31.7083 29.5417 31.125 30.125C30.5417 30.7083 29.8333 31 29 31H15V31M15 29H29C29.2833 29 29.5208 28.9042 29.7125 28.7125C29.9042 28.5208 30 28.2833 30 28C30 27.7167 29.9042 27.4792 29.7125 27.2875C29.5208 27.0958 29.2833 27 29 27H15C14.7167 27 14.4792 27.0958 14.2875 27.2875C14.0958 27.4792 14 27.7167 14 28C14 28.2833 14.0958 28.5208 14.2875 28.7125C14.4792 28.9042 14.7167 29 15 29V29M20 23C19.7167 23 19.4792 22.9042 19.2875 22.7125C19.0958 22.5208 19 22.2833 19 22V14C19 13.7167 19.0958 13.4792 19.2875 13.2875C19.4792 13.0958 19.7167 13 20 13H28C28.2833 13 28.5208 13.0958 28.7125 13.2875C28.9042 13.4792 29 13.7167 29 14V22C29 22.2833 28.9042 22.5208 28.7125 22.7125C28.5208 22.9042 28.2833 23 28 23H20V23M21 21H27V15H21V21V21M12 20.95V19.025H16.925V20.95H12V20.95M22 18H26V16.025H22V18V18M14 18H16.925V16.025H14V18V18M21 21V15V15V21V21V21" fill="#C5A722"/>
</svg>
