<svg width="40" height="40" viewBox="0 0 40 40" fill="none" xmlns="http://www.w3.org/2000/svg">
<path d="M0 10C0 4.47715 4.47715 0 10 0H30C35.5228 0 40 4.47715 40 10V30C40 35.5228 35.5228 40 30 40H10C4.47715 40 0 35.5228 0 30V10Z" fill="#7BF8DE"/>
<g clip-path="url(#clip0_412_7815)">
<path d="M21.8182 20.9094C21.0606 20.9094 20.4167 20.6442 19.8864 20.1139C19.3561 19.5836 19.0909 18.9397 19.0909 18.1821C19.0909 17.4245 19.3561 16.7806 19.8864 16.2503C20.4167 15.72 21.0606 15.4548 21.8182 15.4548C22.5758 15.4548 23.2197 15.72 23.75 16.2503C24.2803 16.7806 24.5455 17.4245 24.5455 18.1821C24.5455 18.9397 24.2803 19.5836 23.75 20.1139C23.2197 20.6442 22.5758 20.9094 21.8182 20.9094ZM15.4545 23.6366C14.9545 23.6366 14.5265 23.4586 14.1705 23.1025C13.8144 22.7464 13.6364 22.3184 13.6364 21.8184V14.5457C13.6364 14.0457 13.8144 13.6177 14.1705 13.2616C14.5265 12.9056 14.9545 12.7275 15.4545 12.7275H28.1818C28.6818 12.7275 29.1098 12.9056 29.4659 13.2616C29.822 13.6177 30 14.0457 30 14.5457V21.8184C30 22.3184 29.822 22.7464 29.4659 23.1025C29.1098 23.4586 28.6818 23.6366 28.1818 23.6366H15.4545ZM17.2727 21.8184H26.3636C26.3636 21.3184 26.5417 20.8904 26.8977 20.5344C27.2538 20.1783 27.6818 20.0003 28.1818 20.0003V16.3639C27.6818 16.3639 27.2538 16.1859 26.8977 15.8298C26.5417 15.4738 26.3636 15.0457 26.3636 14.5457H17.2727C17.2727 15.0457 17.0947 15.4738 16.7386 15.8298C16.3826 16.1859 15.9545 16.3639 15.4545 16.3639V20.0003C15.9545 20.0003 16.3826 20.1783 16.7386 20.5344C17.0947 20.8904 17.2727 21.3184 17.2727 21.8184ZM27.2727 27.273H11.8182C11.3182 27.273 10.8902 27.095 10.5341 26.7389C10.178 26.3828 10 25.9548 10 25.4548V15.4548H11.8182V25.4548H27.2727V27.273Z" fill="#007261"/>
</g>
<defs>
<clipPath id="clip0_412_7815">
<rect width="20" height="16" fill="white" transform="translate(10 12)"/>
</clipPath>
</defs>
</svg>
