<svg width="40" height="40" viewBox="0 0 40 40" fill="none" xmlns="http://www.w3.org/2000/svg">
<path d="M0 10C0 4.47715 4.47715 0 10 0H30C35.5228 0 40 4.47715 40 10V30C40 35.5228 35.5228 40 30 40H10C4.47715 40 0 35.5228 0 30V10Z" fill="#4A3587"/>
<g clip-path="url(#clip0_412_7809)">
<path d="M18.95 23.55L24.6 17.9L23.175 16.475L18.95 20.7L16.85 18.6L15.425 20.025L18.95 23.55ZM20 30C17.6833 29.4166 15.7708 28.0875 14.2625 26.0125C12.7542 23.9375 12 21.6334 12 19.1V13L20 10L28 13V19.1C28 21.6334 27.2458 23.9375 25.7375 26.0125C24.2292 28.0875 22.3166 29.4166 20 30ZM20 27.9C21.7334 27.35 23.1666 26.25 24.3 24.6C25.4334 22.95 26 21.1166 26 19.1V14.375L20 12.125L14 14.375V19.1C14 21.1166 14.5667 22.95 15.7 24.6C16.8333 26.25 18.2667 27.35 20 27.9Z" fill="#BAA4FE"/>
</g>
<defs>
<clipPath id="clip0_412_7809">
<rect width="16" height="20" fill="white" transform="translate(12 10)"/>
</clipPath>
</defs>
</svg>
