<svg width="70" height="70" viewBox="0 0 70 70" fill="none" xmlns="http://www.w3.org/2000/svg">
<path d="M0 17.3867C0 7.78431 7.7843 0 17.3867 0H52.1602C61.7626 0 69.5469 7.7843 69.5469 17.3867V52.1602C69.5469 61.7626 61.7626 69.5469 52.1602 69.5469H17.3867C7.78431 69.5469 0 61.7626 0 52.1602V17.3867Z" fill="#E6F9F1"/>
<path d="M31.9272 51.7605L31.9544 45.9734L44.4295 33.6678C44.6926 33.4114 44.9828 33.2195 45.3 33.0921C45.6171 32.9648 45.9456 32.9019 46.2855 32.9035C46.6253 32.9051 46.9543 32.9683 47.2724 33.0931C47.5906 33.2178 47.8778 33.4096 48.1343 33.6685L50.114 35.6601C50.3637 35.9301 50.5522 36.2247 50.6796 36.544C50.8069 36.8633 50.8753 37.1896 50.8849 37.5228C50.8944 37.856 50.8296 38.1817 50.6904 38.4998C50.5512 38.8178 50.3555 39.1107 50.1032 39.3782L37.631 51.7872L31.9272 51.7605V51.7605M48.2059 37.5969V37.5969L46.1998 35.5485V35.5485L48.2059 37.5969V37.5969M34.5381 49.174L36.5371 49.1834L44.1723 41.6194L43.1775 40.6152L42.1328 39.5775L34.5478 47.0917L34.5381 49.174V49.174M43.1775 40.6152L42.1328 39.5775V39.5775L43.1775 40.6152L44.1723 41.6194V41.6194L43.1775 40.6152V40.6152M32.2898 31.2553L30.4728 29.3944L34.1012 25.8164L27.1479 25.7838C26.9292 26.4669 26.5722 27.0538 26.0768 27.5446C25.5814 28.0354 24.9912 28.3869 24.306 28.5991L24.2373 43.2652C25.1133 43.5559 25.8355 44.0762 26.404 44.8263C26.9724 45.5764 27.2543 46.4367 27.2498 47.4073C27.2441 48.6104 26.8186 49.6311 25.9733 50.4693C25.1279 51.3075 24.1043 51.7238 22.9023 51.7182C21.7003 51.7126 20.6792 51.2867 19.8392 50.4406C18.9991 49.5944 18.5819 48.5698 18.5875 47.3667C18.5921 46.3961 18.882 45.5429 19.4574 44.8071C20.0328 44.0712 20.7599 43.5621 21.6385 43.2797L21.7074 28.587C20.8314 28.2963 20.1092 27.776 19.5408 27.0259C18.9723 26.2758 18.6904 25.4155 18.6949 24.4449C18.7006 23.2418 19.1265 22.2211 19.9726 21.3829C20.8187 20.5447 21.8433 20.1284 23.0464 20.134C24.017 20.1386 24.8747 20.4286 25.6194 21.004C26.3641 21.5794 26.8777 22.3065 27.1601 23.1852L34.1134 23.2178L30.5186 19.6059L32.353 17.7621L39.068 24.5403L32.2898 31.2553V31.2553M45.9643 20.2414C47.1663 20.2471 48.1874 20.6726 49.0274 21.5179C49.8675 22.3633 50.2847 23.387 50.2791 24.589C50.2735 25.791 49.848 26.812 49.0026 27.6521C48.1573 28.4921 47.1336 28.9094 45.9316 28.9037C44.7296 28.8981 43.7085 28.4726 42.8685 27.6272C42.0284 26.7819 41.6112 25.7582 41.6168 24.5562C41.6224 23.3542 42.0479 22.3332 42.8933 21.4931C43.7387 20.653 44.7623 20.2358 45.9643 20.2414V20.2414M22.9105 49.1195C23.4014 49.1218 23.8136 48.9577 24.1473 48.6272C24.4809 48.2967 24.6488 47.886 24.6511 47.3952C24.6534 46.9043 24.4893 46.4921 24.1588 46.1584C23.8283 45.8248 23.4176 45.6569 22.9268 45.6546C22.4359 45.6523 22.0237 45.8164 21.69 46.1469C21.3564 46.4774 21.1885 46.8881 21.1862 47.3789C21.1839 47.8698 21.348 48.282 21.6785 48.6156C22.009 48.9493 22.4197 49.1172 22.9105 49.1195V49.1195M23.018 26.1976C23.5088 26.1999 23.9211 26.0358 24.2547 25.7053C24.5883 25.3748 24.7562 24.9641 24.7585 24.4733C24.7608 23.9824 24.5967 23.5702 24.2662 23.2366C23.9357 22.9029 23.5251 22.735 23.0342 22.7327C22.5433 22.7304 22.1311 22.8945 21.7975 23.225C21.4639 23.5555 21.2959 23.9662 21.2936 24.457C21.2913 24.9479 21.4554 25.3601 21.7859 25.6938C22.1164 26.0274 22.5271 26.1953 23.018 26.1976V26.1976M45.9398 26.3051C46.4307 26.3074 46.8429 26.1433 47.1766 25.8128C47.5102 25.4822 47.6781 25.0716 47.6804 24.5807C47.6827 24.0898 47.5186 23.6776 47.1881 23.344C46.8576 23.0104 46.4469 22.8424 45.9561 22.8401C45.4652 22.8378 45.053 23.0019 44.7194 23.3324C44.3857 23.6629 44.2178 24.0736 44.2155 24.5645C44.2132 25.0553 44.3773 25.4676 44.7078 25.8012C45.0383 26.1348 45.449 26.3028 45.9398 26.3051V26.3051M22.9186 47.387V47.387V47.387V47.387V47.387V47.387V47.387V47.387V47.387V47.387M23.0261 24.4652V24.4652V24.4652V24.4652V24.4652V24.4652V24.4652V24.4652V24.4652V24.4652M45.948 24.5726V24.5726V24.5726V24.5726V24.5726V24.5726V24.5726V24.5726V24.5726V24.5726" fill="#2E7D5E"/>
</svg>
