<svg width="70" height="70" viewBox="0 0 70 70" fill="none" xmlns="http://www.w3.org/2000/svg">
<path d="M0 17.3867C0 7.78431 7.7843 0 17.3867 0H52.1602C61.7626 0 69.5469 7.7843 69.5469 17.3867V52.1602C69.5469 61.7626 61.7626 69.5469 52.1602 69.5469H17.3867C7.78431 69.5469 0 61.7626 0 52.1602V17.3867Z" fill="#E6F2F8"/>
<path d="M21.0082 44.7734C20.1043 44.7734 19.3392 44.4553 18.7129 43.8189C18.0866 43.1825 17.7734 42.4051 17.7734 41.4867V28.0601C17.7734 27.1417 18.0866 26.3643 18.7129 25.728C19.3392 25.0916 20.1043 24.7734 21.0082 24.7734H48.5386C49.4425 24.7734 50.2077 25.0916 50.834 25.728C51.4603 26.3643 51.7734 27.1417 51.7734 28.0601V41.4867C51.7734 42.4051 51.4603 43.1825 50.834 43.8189C50.2077 44.4553 49.4425 44.7734 48.5386 44.7734H21.0082V44.7734M21.0082 42.0462H48.5386C48.6763 42.0462 48.8025 41.9879 48.9172 41.8714C49.0319 41.7548 49.0893 41.6266 49.0893 41.4867V28.0601C49.0893 27.9203 49.0319 27.7921 48.9172 27.6755C48.8025 27.5589 48.6763 27.5007 48.5386 27.5007H43.2734V34.0741H40.5893V27.5007H36.1155V34.0741H33.4314V27.5007H28.9576V34.0741H26.2734V27.5007H21.0082C20.8706 27.5007 20.7444 27.5589 20.6297 27.6755C20.515 27.7921 20.4576 27.9203 20.4576 28.0601V41.4867C20.4576 41.6266 20.515 41.7548 20.6297 41.8714C20.7444 41.9879 20.8706 42.0462 21.0082 42.0462V42.0462M26.2734 34.0741V34.0741H28.9576V34.0741H26.2734V34.0741M33.4314 34.0741V34.0741H36.1155V34.0741H33.4314V34.0741M40.5893 34.0741V34.0741H43.2734V34.0741H40.5893V34.0741M34.7734 34.7734V34.7734V34.7734V34.7734V34.7734V34.7734V34.7734V34.7734V34.7734V34.7734V34.7734V34.7734V34.7734V34.7734V34.7734V34.7734V34.7734V34.7734V34.7734V34.7734V34.7734V34.7734V34.7734V34.7734V34.7734V34.7734" fill="#1A4D6E"/>
</svg>
