<svg width="70" height="70" viewBox="0 0 70 70" fill="none" xmlns="http://www.w3.org/2000/svg">
<path d="M0 17.3867C0 7.78431 7.7843 0 17.3867 0H52.1602C61.7626 0 69.5469 7.7843 69.5469 17.3867V52.1602C69.5469 61.7626 61.7626 69.5469 52.1602 69.5469H17.3867C7.78431 69.5469 0 61.7626 0 52.1602V17.3867Z" fill="#FFF4E5"/>
<path d="M19.7451 51.7734V47.2457H25.7815L20.7158 30.7494C19.8412 30.2966 19.1321 29.6401 18.5887 28.7798C18.0452 27.9195 17.7734 26.9687 17.7734 25.9273C17.7734 24.4306 18.3011 23.1572 19.3565 22.107C20.4118 21.0568 21.6915 20.5317 23.1956 20.5317C24.4392 20.5317 25.5275 20.8996 26.4602 21.6354C27.393 22.3711 28.0312 23.3113 28.375 24.4558H35.1395V22.0032C35.1395 21.5857 35.281 21.236 35.5641 20.9543C35.8473 20.6726 36.1986 20.5317 36.6182 20.5317C36.8761 20.5317 37.1162 20.5971 37.3386 20.7279C37.5611 20.8587 37.733 21.0423 37.8543 21.2788V21.5429L41.3199 18.3282C41.603 18.0465 41.931 17.871 42.3039 17.8018C42.6767 17.7327 43.0414 17.7899 43.3978 17.9735L50.9736 21.4675C51.2921 21.6259 51.519 21.8555 51.6542 22.1561C51.7895 22.4566 51.7876 22.7554 51.6485 23.0522C51.4893 23.3691 51.2586 23.5722 50.9566 23.6615C50.6545 23.7508 50.3543 23.7263 50.0561 23.588L42.7684 20.2374L38.097 24.5539V27.3007L42.7684 31.5192L50.0561 28.1686C50.3543 28.0302 50.6596 28.0107 50.9717 28.1101C51.2839 28.2094 51.5095 28.4075 51.6485 28.7043C51.8078 29.0213 51.8147 29.325 51.6694 29.6156C51.5241 29.9061 51.2921 30.1306 50.9736 30.2891L43.3978 33.8434C43.0414 34.027 42.6767 34.0811 42.3039 34.0056C41.931 33.9302 41.603 33.7579 41.3199 33.4887L37.8543 30.3117V30.5758C37.733 30.772 37.5611 30.9456 37.3386 31.0965C37.1162 31.2475 36.8761 31.3229 36.6182 31.3229C36.1986 31.3229 35.8473 31.1821 35.5641 30.9003C35.281 30.6186 35.1395 30.269 35.1395 29.8514V27.3988H28.375C28.2764 27.7485 28.1412 28.0881 27.9693 28.4176C27.7974 28.7471 27.5939 29.049 27.3588 29.3232L37.0656 47.2457H44.3912V51.7734H19.7451V51.7734M23.1956 28.3799C23.8806 28.3799 24.4626 28.1416 24.9417 27.6649C25.4207 27.1882 25.6602 26.609 25.6602 25.9273C25.6602 25.2456 25.4207 24.6664 24.9417 24.1897C24.4626 23.7131 23.8806 23.4747 23.1956 23.4747C22.5105 23.4747 21.9285 23.7131 21.4494 24.1897C20.9704 24.6664 20.7309 25.2456 20.7309 25.9273C20.7309 26.609 20.9704 27.1882 21.4494 27.6649C21.9285 28.1416 22.5105 28.3799 23.1956 28.3799V28.3799M28.8376 47.2457H33.6683L24.9625 31.1342C24.8614 31.1971 24.7021 31.2506 24.4847 31.2946C24.2673 31.3386 24.0828 31.3481 23.9311 31.3229L28.8376 47.2457V47.2457M33.6683 47.2457V47.2457V47.2457V47.2457V47.2457V47.2457V47.2457" fill="#8C5E00"/>
</svg>
