<svg width="70" height="70" viewBox="0 0 70 70" fill="none" xmlns="http://www.w3.org/2000/svg">
<path d="M0 17.3867C0 7.78431 7.7843 0 17.3867 0H52.1602C61.7626 0 69.5469 7.7843 69.5469 17.3867V52.1602C69.5469 61.7626 61.7626 69.5469 52.1602 69.5469H17.3867C7.78431 69.5469 0 61.7626 0 52.1602V17.3867Z" fill="#EDE8FF"/>
<path d="M23.0415 48.6826H46.5054C46.692 48.6826 46.8519 48.6066 46.9851 48.4547C47.1184 48.3028 47.1717 48.1344 47.145 47.9494L44.3629 28.6114C44.3363 28.4529 44.263 28.3241 44.1431 28.225C44.0231 28.1259 43.8832 28.0764 43.7233 28.0764H25.8236C25.6637 28.0764 25.5237 28.1259 25.4038 28.225C25.2839 28.3241 25.2106 28.4529 25.1839 28.6114L22.4018 47.9494C22.3752 48.1344 22.4285 48.3028 22.5617 48.4547C22.695 48.6066 22.8549 48.6826 23.0415 48.6826V48.6826M34.7734 24.9855C35.3624 24.9855 35.856 24.7881 36.2544 24.3931C36.6528 23.9982 36.852 23.5088 36.852 22.9249C36.852 22.3411 36.6528 21.8517 36.2544 21.4567C35.856 21.0618 35.3624 20.8643 34.7734 20.8643C34.1845 20.8643 33.6908 21.0618 33.2924 21.4567C32.894 21.8517 32.6948 22.3411 32.6948 22.9249C32.6948 23.5088 32.894 23.9982 33.2924 24.3931C33.6908 24.7881 34.1845 24.9855 34.7734 24.9855V24.9855M39.4862 24.9855H43.7433C44.6893 24.9855 45.5068 25.2926 46.1956 25.9069C46.8845 26.5211 47.3022 27.2865 47.4488 28.2032L50.2309 47.5413C50.3908 48.6588 50.1003 49.6435 49.3595 50.4955C48.6186 51.3474 47.6673 51.7734 46.5054 51.7734H23.0415C21.8796 51.7734 20.9282 51.3474 20.1874 50.4955C19.4466 49.6435 19.1561 48.6588 19.316 47.5413L22.0981 28.2032C22.2447 27.2865 22.6624 26.5211 23.3512 25.9069C24.0401 25.2926 24.8575 24.9855 25.8036 24.9855H30.0607C29.9168 24.6685 29.8002 24.3403 29.711 24.0008C29.6217 23.6613 29.577 23.3027 29.577 22.9249C29.577 21.4851 30.08 20.2666 31.086 19.2693C32.092 18.2721 33.3211 17.7734 34.7734 17.7734C36.2258 17.7734 37.4549 18.2721 38.4609 19.2693C39.4668 20.2666 39.9698 21.4851 39.9698 22.9249C39.9698 23.3027 39.9252 23.6613 39.8359 24.0008C39.7466 24.3403 39.6301 24.6685 39.4862 24.9855V24.9855M22.3419 48.6826V48.6826V48.6826V48.6826V48.6826V48.6826H47.205V48.6826V48.6826V48.6826V48.6826V48.6826H22.3419V48.6826" fill="#4F378B"/>
</svg>
