<svg width="70" height="70" viewBox="0 0 70 70" fill="none" xmlns="http://www.w3.org/2000/svg">
<path d="M0 17.3867C0 7.78431 7.7843 0 17.3867 0H52.1602C61.7626 0 69.5469 7.7843 69.5469 17.3867V52.1602C69.5469 61.7626 61.7626 69.5469 52.1602 69.5469H17.3867C7.78431 69.5469 0 61.7626 0 52.1602V17.3867Z" fill="#FDE8F0"/>
<path d="M21.0082 49.7734C20.1043 49.7734 19.3392 49.4646 18.7129 48.847C18.0866 48.2293 17.7734 47.4748 17.7734 46.5834V22.9635C17.7734 22.0721 18.0866 21.3175 18.7129 20.6999C19.3392 20.0823 20.1043 19.7734 21.0082 19.7734H48.5386C49.4425 19.7734 50.2077 20.0823 50.834 20.6999C51.4603 21.3175 51.7734 22.0721 51.7734 22.9635V46.5834C51.7734 47.4748 51.4603 48.2293 50.834 48.847C50.2077 49.4646 49.4425 49.7734 48.5386 49.7734H21.0082V49.7734M21.0082 47.1264H48.5386C48.6763 47.1264 48.8025 47.0699 48.9172 46.9567C49.0319 46.8436 49.0893 46.7192 49.0893 46.5834V22.9635C49.0893 22.8277 49.0319 22.7033 48.9172 22.5901C48.8025 22.477 48.6763 22.4204 48.5386 22.4204H21.0082C20.8706 22.4204 20.7444 22.477 20.6297 22.5901C20.515 22.7033 20.4576 22.8277 20.4576 22.9635V46.5834C20.4576 46.7192 20.515 46.8436 20.6297 46.9567C20.7444 47.0699 20.8706 47.1264 21.0082 47.1264V47.1264M22.6945 43.1558H30.7471V40.5088H22.6945V43.1558V43.1558M39.3366 39.4397L47.5579 31.3322L45.6445 29.4454L39.3366 35.7101L36.7866 33.1954L34.918 35.0823L39.3366 39.4397V39.4397M22.6945 36.0969H30.7471V33.4499H22.6945V36.0969V36.0969M22.6945 29.0381H30.7471V26.3911H22.6945V29.0381V29.0381M20.4576 47.1264V47.1264C20.4576 47.1264 20.4576 47.0699 20.4576 46.9567C20.4576 46.8436 20.4576 46.7192 20.4576 46.5834V22.9635C20.4576 22.8277 20.4576 22.7033 20.4576 22.5901C20.4576 22.477 20.4576 22.4204 20.4576 22.4204V22.4204C20.4576 22.4204 20.4576 22.477 20.4576 22.5901C20.4576 22.7033 20.4576 22.8277 20.4576 22.9635V46.5834C20.4576 46.7192 20.4576 46.8436 20.4576 46.9567C20.4576 47.0699 20.4576 47.1264 20.4576 47.1264V47.1264" fill="#8C1A45"/>
</svg>
