<svg width="70" height="70" viewBox="0 0 70 70" fill="none" xmlns="http://www.w3.org/2000/svg">
<path d="M0 17.3867C0 7.78431 7.7843 0 17.3867 0H52.1602C61.7626 0 69.5469 7.7843 69.5469 17.3867V52.1602C69.5469 61.7626 61.7626 69.5469 52.1602 69.5469H17.3867C7.78431 69.5469 0 61.7626 0 52.1602V17.3867Z" fill="#E8F0FF"/>
<path d="M34.7764 51.7734C32.4252 51.7734 30.2151 51.3273 28.1462 50.4349C26.0773 49.5426 24.2777 48.3315 22.7473 46.8018C21.2169 45.2721 20.0053 43.4732 19.1125 41.4053C18.2198 39.3373 17.7734 37.1277 17.7734 34.7764C17.7734 32.4252 18.2196 30.2151 19.112 28.1462C20.0043 26.0773 21.2153 24.2777 22.7451 22.7473C24.2748 21.2169 26.0736 20.0053 28.1416 19.1125C30.2096 18.2198 32.4192 17.7734 34.7704 17.7734C37.1217 17.7734 39.3318 18.2196 41.4007 19.112C43.4695 20.0043 45.2692 21.2153 46.7996 22.7451C48.33 24.2748 49.5416 26.0736 50.4343 28.1416C51.3271 30.2096 51.7734 32.4192 51.7734 34.7704C51.7734 37.1217 51.3273 39.3318 50.4349 41.4007C49.5426 43.4695 48.3315 45.2692 46.8018 46.7996C45.2721 48.33 43.4732 49.5416 41.4053 50.4343C39.3373 51.3271 37.1277 51.7734 34.7764 51.7734V51.7734M32.984 48.9998V45.5103C31.9997 45.5103 31.1572 45.1599 30.4563 44.459C29.7554 43.7581 29.405 42.9156 29.405 41.9314V40.1419L20.8155 31.5524C20.726 32.0892 20.644 32.6261 20.5694 33.1629C20.4949 33.6997 20.4576 34.2366 20.4576 34.7734C20.4576 38.3822 21.6431 41.5436 24.0142 44.2577C26.3852 46.9717 29.3752 48.5524 32.984 48.9998V48.9998M45.3314 44.4366C46.5542 43.0945 47.4862 41.5958 48.1274 39.9406C48.7687 38.2853 49.0893 36.5608 49.0893 34.767C49.0893 31.8371 48.2794 29.1614 46.6597 26.7398C45.04 24.3182 42.8674 22.5706 40.1419 21.4969V22.2471C40.1419 23.2313 39.7914 24.0738 39.0906 24.7747C38.3897 25.4756 37.5471 25.826 36.5629 25.826H32.984V29.405C32.984 29.912 32.8125 30.337 32.4695 30.68C32.1265 31.023 31.7015 31.1945 31.1945 31.1945H27.6155V34.7734H38.3524C38.8594 34.7734 39.2844 34.9449 39.6274 35.2879C39.9704 35.6309 40.1419 36.0559 40.1419 36.5629V41.9314H41.9314C42.7068 41.9314 43.4077 42.1625 44.034 42.6248C44.6603 43.0871 45.0928 43.691 45.3314 44.4366V44.4366" fill="#1A3A8C"/>
</svg>
